# xmcd
# 
# Track frame offsets:
#     183
#     14225
#     28173
#     41613
#     70295
#     90128
#     116640
#     119498
#     145730
#     165803
#     183000
#     211843
#     231025
#     253773
#     268433
#     271670
#     296940
# 
# Disc length: 4349
# 
# Revision: 82
# Processed by: cddbd v1.5.2PL0 Copyright (c) Steve Scherf et al.
# Submitted via: fre:ac v1.0.27
# 
DISCID=f510fb11
DTITLE=U2 - Rattle And Hum
DYEAR=1988
DGENRE=Guitar Rock
TTITLE0=Helter Skelter
TTITLE1=Van Diemen's Land
TTITLE2=Desire
TTITLE3=Hawkmoon 269
TTITLE4=All Along the Watchtower
TTITLE5=I Still Haven't Found What I'm Looking For
TTITLE6=Freedom For My People
TTITLE7=Silver And Gold
TTITLE8=Pride (In The Name of Love)
TTITLE9=Angel Of Harlem
TTITLE10=Love Rescue Me
TTITLE11=When Love Comes to Town
TTITLE12=Heartland
TTITLE13=God Part II
TTITLE14=The Star Spangled Banner
TTITLE15=Bullet The Blue Sky
TTITLE16=All I Want Is You
EXTD=YEAR: 1988
EXTT0=
EXTT1=
EXTT2=
EXTT3=
EXTT4=
EXTT5=
EXTT6=
EXTT7=
EXTT8=
EXTT9=
EXTT10=
EXTT11=
EXTT12=
EXTT13=
EXTT14=
EXTT15=
EXTT16=
PLAYORDER=
